<svg xmlns="http://www.w3.org/2000/svg" id="Layer_1" data-name="Layer 1" viewBox="0 0 22.12 22.1"><defs/><path d="M5.41 11.89c.35-.31.72-1.16 1.02-1.59.35-.51.81-.98 1.36-1.28 1.12-.62 2.33-.43 3.05.66h.06l5.86-5.67c.22-.29.34-.65.59-.92.71-.57 1.34-1.28 2.04-1.84.07-.06.15-.12.24-.13.19-.02.76.01.95.05.13.02.45.35.47.48.04.18.07.77.05.95-.01.11-.12.21-.19.3-.57.69-1.25 1.32-1.82 2.02-.37.25-.71.35-1.03.68-.23.23-.44.48-.66.71-1.95 2.01-3.89 4.02-5.83 6.05-.01.02 0 .03 0 .04.02.04.19.2.23.26 1.13 1.41.74 2.88-.73 3.81-.51.32-.83.33-1.16.91-.95 1.68-.79 3.91-3.11 4.52-2.86.76-5.51-1.31-6.47-3.9-1.15-3.11 1.57-5.2 4.28-5.86.26-.06.6-.06.8-.24Zm3.8.43c.22.09.42.29.56.47.03.04.13.23.17.21l7.91-8.2.71-.38 1.82-1.99-.02-.56-.57-.03-1.95 1.75c-.21.3-.35.66-.59.94-2.53 2.46-5.11 4.88-7.63 7.34-.1.1-.32.29-.39.39-.01.02-.03.02-.02.06Zm.86-2.48c-.91-.93-2.14-.29-2.83.56-.49.6-.99 1.9-1.64 2.22-.24.12-.48.12-.73.18-1.48.37-3.52 1.38-3.99 2.96-.55 1.83 1.15 4.28 2.75 5.08 1.19.6 3.24.79 4.16-.36s1.03-3.43 2.13-4.19c.59-.41 1.19-.52 1.6-1.21.47-.77.13-1.62-.46-2.19l-.89.91c.13 1.72-1.86 2.79-3.19 1.64-1.24-1.06-.61-3.21 1-3.37.12-.01.38.02.46-.02l1.89-1.82s-.22-.32-.26-.37Zm-1.8 2.91c-1.68-.02-1.63 2.6.13 2.43 1.44-.13 1.39-2.41-.13-2.43Z" class="cls-1"/><path d="M16.75 2.45c.25-.03.44.22.37.46-.04.15-.36.46-.52.48-.24.04-.46-.18-.42-.42.03-.17.38-.51.56-.53ZM20.56 4.03c.28-.05.48.16.42.44-.02.12-.34.47-.46.49-.26.06-.5-.13-.46-.39.02-.14.35-.52.5-.54ZM19.36 5.27c.33-.07.57.23.41.53-.02.04-.22.28-.26.31-.32.28-.75-.03-.59-.39.04-.09.35-.43.44-.45ZM17.43 2.06c-.09-.1-.12-.27-.06-.39.02-.06.3-.34.35-.38.3-.21.69.1.53.44-.03.06-.27.31-.33.35-.15.11-.36.11-.49-.03ZM21.65 2.72c.27-.04.45.19.4.45-.01.08-.27.38-.34.43-.33.24-.72-.11-.53-.46.07-.12.33-.4.47-.42ZM19.05.08c.3-.08.53.14.47.44-.02.08-.3.38-.37.43-.34.22-.74-.18-.48-.52.05-.06.33-.33.38-.35ZM3.55 15.03c.12-.02.23.01.32.09l3.31 3.31c.22.35-.19.73-.52.48l-3.28-3.28c-.2-.19-.08-.54.18-.59Z" class="cls-1"/></svg>