<svg xmlns="http://www.w3.org/2000/svg" viewBox="0 0 288.55 152.27">
  <path d="M151.02 63.7c2.83 24.49 5.12 48.91 5.42 73.52l9.31-3.05q-.59-22.39-1.18-45c-1.11-.08-2.06-.11-3-.24-3.92-.54-5.69-3.93-3.87-7.44a18.6 18.6 0 0 1 1.92-3c7.3-9.26 14.53-18.58 23.07-26.78a129.67 129.67 0 0 1 21-16.85 11.85 11.85 0 0 1 2.3-1.17c2.07-.71 4.18-.77 5.93.73 2.72 2.32 5.32 4.78 8 7.19 7.09 6.5 14.31 12.86 21.22 19.54 6 5.8 11.67 11.92 17.4 18a7 7 0 0 1 1.65 3.34c.54 2.82-1.2 4.9-4.07 5.08-1.26.08-2.53 0-3.9 0-.38 13.66-.76 27.23-1.14 40.94l4.8-.37c-.3-4.38-.58-8.66-2.07-12.76a7.83 7.83 0 0 1-.71-2.18c0-.72.14-1.77.61-2.1s1.46 0 2.22.11c.15 0 .28.19.6.42.22-.82.44-1.53.6-2.25a37.31 37.31 0 0 1 5.69-12.7 7.79 7.79 0 0 1 1.18-1.32 1.9 1.9 0 0 1 2.7-.15 1.8 1.8 0 0 1 .29 2.56 51.59 51.59 0 0 0-5.37 13.23c-.09.39-.16.78-.33 1.57 1.2-1.21 2.09-2.21 3.08-3.08 1.24-1.1 2.32-1.15 3.13-.29s.74 2.06-.25 3.19c-2.56 2.92-4 6.4-5.32 10.1a60.17 60.17 0 0 1 5.76-2.31 32.64 32.64 0 0 1 5.74-1c1.68-.17 2.62.56 2.72 1.78s-.56 2.11-2.2 2.4a23.42 23.42 0 0 0-10.68 4.45c-.18.13-.33.29-.61.53 2.61.57 5.12.93 7.52 1.68 4.93 1.53 9.81 3.2 14.66 4.95a5.12 5.12 0 0 1 3.6 3.77 5.74 5.74 0 0 1-2.8 6.12 3.76 3.76 0 0 1-3.65 0 69.26 69.26 0 0 0-17.22-5.86 43.37 43.37 0 0 0-19.17.27c-10.87 2.6-21.89 2.9-33 2.55-7.71-.24-15.42-.49-23.13-.42a85.6 85.6 0 0 0-28.29 4.83c-2.82 1-5.61 2.1-8.48 2.9a39.19 39.19 0 0 1-18.46.47 42.13 42.13 0 0 0-18 .6c-11.11 2.59-22.2 2.87-33.25-.19-6.43-1.78-12.88-1.7-19.43-.91a47 47 0 0 1-7.6.16 15.54 15.54 0 0 1-8.85-3.5 23 23 0 0 0-12.14-4.3 75.06 75.06 0 0 0-25.75 2.35c-1.43.35-2.72 1.22-4.13 1.67a3.46 3.46 0 0 1-2.29 0 4.94 4.94 0 0 1-2.52-6.3 8 8 0 0 1 4.1-4.35c3.35-1.69 7-2 10.64-2.66 2.17-.38 4.36-.63 6.77-1a34.58 34.58 0 0 0-8.51-7.57 8 8 0 0 1-1.23-.83 2.18 2.18 0 0 1-.42-2.75 1.7 1.7 0 0 1 2.36-.76c2.11 1.14 4.11 2.34 6.11 3.56a20.91 20.91 0 0 1 2.12 1.75c-.19-.87-.29-1.44-.44-2-1.61-5.88-3.77-11.5-8.11-16A65.06 65.06 0 0 0 8.1 102c-.38-.31-1-.54-1.12-.92a4 4 0 0 1-.13-2.37 1.39 1.39 0 0 1 2.1-.59 57.15 57.15 0 0 1 6.66 4.39 26.93 26.93 0 0 1 6.49 8.6c.19.39.42.76.59 1.06.35-3.35.58-6.73 1.09-10.06a24.23 24.23 0 0 1 4.88-11.23 5.71 5.71 0 0 1 .72-.82 2 2 0 0 1 3 2.44c-5.33 7.19-5.26 15.5-5 23.85 0 1.8.2 3.59.33 5.67 1.26-1.92 2.28-3.55 3.4-5.13a10.38 10.38 0 0 1 1.82-1.89 2.18 2.18 0 0 1 3-.24c1 .82.84 1.92.27 3a7.89 7.89 0 0 1-.7 1c-2.61 3.25-4 7.09-5.29 11a5.38 5.38 0 0 0-.14 1l8.39.62v-1.53L36.74 83c-.26-6.71-.62-13.42-.9-20.13 0-.83-.25-1.17-1.14-1.25q-3.39-.28-6.75-.81c-2.3-.35-4.26-1.24-5.1-3.69a6.13 6.13 0 0 1 1.47-6.9c2.37-2.22 5-4.17 7.57-6.19C45.5 33.32 59.16 22.66 72.74 11.91c4-3.18 7.85-6.59 11.76-9.91 3.21-2.72 7-2.66 10.22.09 5.2 4.45 10.49 8.8 15.66 13.29a63.34 63.34 0 0 1 6.37 6.32 75.72 75.72 0 0 0 17.21 14.22c9.07 5.74 17.89 11.9 26.78 17.92a7 7 0 0 1 2.26 2.27c1.82 3.36-.12 6.83-4 7.17-2.55.22-5.13.27-7.98.42Zm-66.57 76.8-.38-2.66c-1.43-9.78-2.89-19.55-4.29-29.33-.41-2.92.58-4.37 3.42-5.11 2-.51 4-1 6-1.31 6.3-1.07 12.59-2.19 18.92-3.08 4.26-.6 6.36 1.05 6.89 5.19 1.24 9.66 2.4 19.34 3.58 29 .26 2.18.46 4.37.67 6.31 4.53 0 8.82-.11 13.11 0 2.52.09 5 .73 7.55.87 2.36.13 4.74-.08 7.06-.14 1-9-3.47-71.19-5.29-76.12l-96.85-1.68v1.58c.13 3.09.3 6.17.41 9.25l2 58.47c0 1.57.41 2.59 2 3.22a16.34 16.34 0 0 1 2.93 2 13.76 13.76 0 0 0 7 3 40.06 40.06 0 0 0 6.1 0 60 60 0 0 1 14.11-.14Zm158.72-53c-23.24.92-46.4 1.78-69.74 1.34.38 14.71.75 29.29 1.12 43.61l25.85-.75v-1.22c-.21-5-.48-10-.62-14.95a88.73 88.73 0 0 1 .08-9.37c.23-3.17 1.3-4.19 4.46-4.69s6.36-1 9.56-1.26c4-.33 8.05-.52 12.08-.62 2.2-.06 3.2.86 3.82 3a9 9 0 0 1 .32 1.41q1.39 11.53 2.75 23.08c.18 1.55.29 3.11.44 4.85 2.57-.55 4.89-1.14 7.25-1.51 1.36-.22 1.73-.85 1.77-2.13.24-8.75.61-17.49.82-26.24.14-4.83.04-9.64.04-14.59Zm-132.31 53.84c-1.31-10.92-2.61-21.74-3.93-32.76l-17.83 2.9a5.68 5.68 0 0 0 0 .73c1.36 9.7 2.71 19.39 4.13 29.08 0 .36.73.85 1.17.91a50.74 50.74 0 0 0 16.46-.86Zm113.91-9.14a144.14 144.14 0 0 0-2.67-23.55l-14.11 1.16c.36 7.49.71 14.85 1.07 22.39Zm-16.75-88.43-.7-.14A11.19 11.19 0 0 0 206.1 46c-2.7 10.45-2.77 21.05-1.71 31.71 0 .34.53.91.82.92 2 .08 4.05 0 6.25 0-.8-11.8-1.36-23.4-3.44-34.86Zm-118-31.71c-1.43 1.16-2.84 2.22-4.15 3.4a3 3 0 0 0-.91 1.67 124.21 124.21 0 0 0-.65 29.41c.22 2.28.48 4.56.72 6.84h1.95c0-13.43.56-26.7 5.39-39.46Zm110.16 66.58a125.63 125.63 0 0 1 1.18-30.12c-2.49 1.83-4.84 3.73-7.16 5.66a1.33 1.33 0 0 0-.33 1q.55 11.34 1.19 22.66a1.1 1.1 0 0 0 .75.8c1.39.05 2.79 0 4.37 0ZM89.95 53.46h4.25v-1.24c.08-3.61.06-7.23.26-10.83.18-3.43.57-6.86.92-10.28.41-4 .82-7.91 1.35-11.86.27-1.94.07-2.46-2.06-3.25-4.04 12.13-4.64 24.66-4.72 37.46Zm16.84-28.08-.42.16c-1.14 5.52-2.56 11-2.62 16.69a32.2 32.2 0 0 0 1.19 10.61c.11.35.5.86.77.87 1.88.08 3.77 0 5.72 0-.15-1.05-.28-1.95-.4-2.84-1.05-7.77-2.07-15.54-3.17-23.3a8.14 8.14 0 0 0-1.07-2.19Zm-5.21 28.3a4.09 4.09 0 0 0 0-.79 35.6 35.6 0 0 1-.81-13.11c.7-5.24 1.84-10.43 2.77-15.64.08-.42.26-1.07.07-1.25-1.19-1.06-2.47-2-4-3.23-.37 2.9-.76 5.45-1 8-.48 5.19-1 10.38-1.27 15.58-.18 3.06-.07 6.15 0 9.22 0 .41.44 1.12.75 1.15a29 29 0 0 0 3.49.07Zm118.9 24.84c-.07-.56-.11-1-.19-1.37a117.7 117.7 0 0 1-2.64-23.74c0-.3 0-.72-.19-.89-1.48-1.41-3-2.77-4.56-4.17.9 10.14 1.79 20.11 2.68 30.17Zm-108.8-47.81c1.18 7.85 2.32 15.43 3.46 23h4.96c0-.15.1-.25.08-.32a49.79 49.79 0 0 1-1.56-14.93 1.59 1.59 0 0 0-.29-1c-2.14-2.15-4.29-4.33-6.65-6.75ZM81.8 18.63c-1.18 1-2.52 1.39-2.71 3a128.54 128.54 0 0 0-.79 23.2c.18 2.79.51 5.57.77 8.44h2.94a143.64 143.64 0 0 1-.21-34.64Zm-5.88 4.94-.36-.09c-1 .78-2 1.52-2.94 2.37a1.87 1.87 0 0 0-.51 1.27c.2 8.2.44 16.39.67 24.59 0 .48.07 1 .11 1.47h3a129.17 129.17 0 0 1 .03-29.61Zm151.49 54.82c0-.46 0-.77-.06-1.08-.46-5.55-.91-11.1-1.39-16.65a1.37 1.37 0 0 0-.24-.86c-1.33-1.21-2.7-2.37-4.32-3.76a111.94 111.94 0 0 0 3.07 22.46h1.72c.36-.01.71-.07 1.22-.11ZM69.65 53.06c-.18-8-.35-16.05-.52-24.26-2.36 1.55-2.33 1.55-2.38 2.58-.24 5.71-.48 11.42-.75 17.13-.07 1.48-.24 3-.38 4.55Zm120.21 5.4c-1.75 1.21-3 2.27-2.9 4.61.16 4-.12 8-.22 12 0 1.12-.1 2.23-.16 3.46h4.39c-.37-6.68-.73-13.26-1.11-20.07Zm-7.19 7.38c-2.34 2.79-4.59 5.57-6.95 8.25a3.57 3.57 0 0 0-.88 3.71l7.83.61ZM63.99 33l-.41-.12c-1.32 1-2.66 2-3.94 3-.22.18-.23.72-.19 1.08.25 1.93.62 3.85.81 5.78.33 3.33.56 6.66.84 10.05a5.7 5.7 0 0 0 .62.11c.22 0 .44 0 .93-.07.45-6.61.89-13.21 1.34-19.83Zm62.87 20.72c.43-2.91.85-5.67 1.23-8.44a1 1 0 0 0-.29-.79c-1.66-1.21-3.36-2.38-5.25-3.71a43.59 43.59 0 0 0 1.73 12.94ZM56.47 38.5c-2.4 1.19-2.46 1.45-2.31 3.84.18 3 .19 6 .27 9v1.38h3.26a59.69 59.69 0 0 0-1.22-14.21Zm173.11 24.93a14.32 14.32 0 0 0 0 1.65c.5 3.86 1 7.73 1.54 11.58.27 1.87.55 2 2.22 1.41V67.69a1.83 1.83 0 0 0-.4-1.2c-1-.98-2.07-1.88-3.36-3.05Zm-98.77-9.81h4c.23-1.21.46-2.32.62-3.43a1.14 1.14 0 0 0-.21-.92c-1.12-.81-2.3-1.54-3.63-2.4-.3 2.37-.49 4.52-.78 6.76ZM51.25 42.48l-.48-.18c-.66.77-1.89 1.54-1.89 2.31a74.85 74.85 0 0 0 .69 7.9l1.68.11ZM237.1 78.2l3.12-.19c.66-4.12.09-5.38-3.12-7.3ZM45.7 46.65l-.49-.09c-.34.52-1 1.05-1 1.58a37.94 37.94 0 0 0 .52 4.15h1.55Zm92.68 7 2.6-.13v-.29l-2.28-1.55ZM41.04 52.2l-.13-2-2.07 1.67Z"/>
  <path fill="#fff" d="M110.86 141.34a50.74 50.74 0 0 1-16.47.86c-.44-.06-1.12-.55-1.17-.91-1.42-9.69-2.77-19.38-4.13-29.08a5.68 5.68 0 0 1 0-.73l17.84-2.9c1.32 11.02 2.62 21.84 3.93 32.76Zm-2.27-14.44a19.86 19.86 0 0 0-1.09-3.15c-1-1.82-3.13-2-4.1-.16a7.59 7.59 0 0 0-.73 4c.16 2 1.72 3.39 3.17 3.24s2.54-1.83 2.75-3.93Zm116.18 5.3H209.1c-.36-7.54-.71-14.9-1.07-22.39l14.07-1.16a144.14 144.14 0 0 1 2.67 23.55ZM90.02 12.06l2.35 1.86c-4.83 12.76-5.38 26-5.39 39.46h-1.95c-.24-2.28-.5-4.56-.72-6.84a124.21 124.21 0 0 1 .65-29.41 3 3 0 0 1 .91-1.67c1.31-1.18 2.72-2.24 4.15-3.4Zm110.16 66.58c-1.58 0-3 .05-4.37 0a1.1 1.1 0 0 1-.75-.8q-.65-11.33-1.19-22.66a1.33 1.33 0 0 1 .33-1c2.32-1.93 4.67-3.83 7.16-5.66a125.63 125.63 0 0 0-1.18 30.12ZM89.95 53.46c.08-12.8.68-25.33 4.72-37.46 2.13.79 2.33 1.31 2.06 3.25-.53 4-.94 7.91-1.35 11.86-.35 3.42-.74 6.85-.92 10.28-.2 3.6-.18 7.22-.26 10.83v1.24Zm16.84-28.08a8.14 8.14 0 0 1 1.07 2.23c1.1 7.76 2.12 15.53 3.17 23.3.12.89.25 1.79.4 2.84h-5.72c-.27 0-.66-.52-.77-.87a32.2 32.2 0 0 1-1.19-10.61c.06-5.7 1.48-11.17 2.62-16.69Zm-5.21 28.3a29 29 0 0 1-3.5-.06c-.31 0-.74-.74-.75-1.15 0-3.07-.16-6.16 0-9.22.31-5.2.79-10.39 1.27-15.58.24-2.56.63-5.11 1-8 1.52 1.21 2.8 2.17 4 3.23.19.18 0 .83-.07 1.25-.93 5.21-2.07 10.4-2.77 15.64a35.6 35.6 0 0 0 .81 13.11 4.09 4.09 0 0 1 .01.78Zm10.1-22.97c2.36 2.42 4.51 4.6 6.62 6.81a1.59 1.59 0 0 1 .29 1 49.79 49.79 0 0 0 1.56 14.93c0 .07 0 .17-.08.32h-4.97c-1.1-7.63-2.24-15.21-3.42-23.06ZM81.8 18.63a143.64 143.64 0 0 0 .21 34.68H79.1c-.26-2.87-.59-5.65-.77-8.44a128.54 128.54 0 0 1 .79-23.2c.16-1.67 1.5-2.05 2.68-3.04Zm-5.88 4.94a129.17 129.17 0 0 0 0 29.61h-3c0-.51-.1-1-.11-1.47-.23-8.2-.47-16.39-.67-24.59a1.87 1.87 0 0 1 .51-1.27c.93-.85 1.95-1.59 2.94-2.37Zm-6.27 29.49h-4c.14-1.6.31-3.07.38-4.55.27-5.71.51-11.42.75-17.13 0-1 0-1 2.38-2.58.14 8.2.31 16.2.49 24.26Zm120.21 5.4c.38 6.81.74 13.39 1.11 20h-4.39c.06-1.23.13-2.34.16-3.46.1-4 .38-8 .22-12-.1-2.27 1.14-3.33 2.9-4.54ZM63.99 33c-.45 6.61-.89 13.21-1.34 19.84-.49 0-.71.08-.93.07a5.7 5.7 0 0 1-.62-.11c-.28-3.39-.51-6.72-.84-10.05-.19-1.93-.56-3.85-.81-5.78 0-.36 0-.9.19-1.08 1.28-1.05 2.62-2 3.94-3Zm62.87 20.73h-2.58a43.59 43.59 0 0 1-1.73-12.94c1.89 1.33 3.59 2.5 5.25 3.71a1 1 0 0 1 .29.79c-.38 2.77-.8 5.53-1.23 8.44ZM56.47 38.51a59.69 59.69 0 0 1 1.22 14.17h-3.26V51.3c-.08-3-.09-6-.27-9-.15-2.3-.06-2.6 2.31-3.79Zm74.34 15.12c.25-2.24.48-4.39.74-6.75 1.33.86 2.51 1.59 3.63 2.4a1.14 1.14 0 0 1 .21.92c-.16 1.11-.39 2.22-.62 3.43ZM51.25 42.49v10.14l-1.68-.11a74.85 74.85 0 0 1-.69-7.9c0-.77 1.23-1.54 1.89-2.31Zm-5.55 4.16.61 5.64h-1.55a37.94 37.94 0 0 1-.52-4.15c0-.53.63-1.06 1-1.58Zm92.68 6.97.36-2 2.28 1.55v.29Zm-97.34-1.45-2.2-.29 2.07-1.67Z"/>
  <path d="M76.1 110.43v3.12a4.25 4.25 0 0 1-2.49 4.18 24.33 24.33 0 0 1-17 2.53 3.77 3.77 0 0 1-3.25-3.22c-1.15-6.37-2.31-12.75-3.35-19.14a14.65 14.65 0 0 1 .19-4.06c.41-3.27 2.55-5 5.57-5.73a33.48 33.48 0 0 1 11.46-.9c3.2.31 5.49 1.9 6.25 5 .95 3.81 1.57 7.71 2.16 11.6.34 2.19.34 4.43.49 6.64Zm-8.12.12c-.5-4.83-1-9.52-1.47-14.23l-8.27 1 2.61 14.4ZM137.62 98c-.07.92-.16 2.32-.3 3.72a3.34 3.34 0 0 1-2.2 2.87 23.45 23.45 0 0 1-12.12 1.43 3.14 3.14 0 0 1-2.74-2.5 50 50 0 0 1-1.79-13.82 4.4 4.4 0 0 1 3.27-4.51 79.4 79.4 0 0 1 9.53-2c2.38-.33 3.79.77 4.68 3.08 1.4 3.67 1.51 7.49 1.67 11.73Zm-6.52 1.19c-.22-2.92-.43-5.68-.65-8.53l-5.44.86.84 8.09Zm-22.51 27.71c-.21 2.09-1.31 3.75-2.75 3.9s-3-1.21-3.17-3.24a7.59 7.59 0 0 1 .73-4c1-1.81 3.14-1.66 4.1.16a19.86 19.86 0 0 1 1.09 3.18Z"/>
  <path fill="#fff" d="m68.02 110.55-7.13 1.15-2.61-14.4 8.27-1c.49 4.7.97 9.42 1.47 14.25Zm63.08-11.36-5.25.42-.84-8.09 5.44-.86c.23 2.85.44 5.61.65 8.53Z"/>
</svg>
