<svg xmlns="http://www.w3.org/2000/svg" viewBox="0 0 152.77 140"><path d="M109 94.65c-3.38 7.32-6.83 14.62-10.13 22-2.72 6.1-5.22 12.35-7.87 18.46-1.79 4.06-5.14 6-8.53 5.13-3.67-.93-5.54-4.2-5-8.81.09-.77.31-1.52.41-2.29.81-6.13 2.12-12.26 2.33-18.41.7-20.41-5.64-37.86-22.61-50.41-8.42-6.23-18-10-28-12.86a23.29 23.29 0 0 1-6.55-3c15.83-1.08 30.21 3.2 43.18 12.12 13.17 9 20.61 22 24.67 38.28 1-1.93 1.56-3 2.09-4.08 4.55-9.26 9-18.58 13.73-27.73a22.49 22.49 0 0 1 5.36-6.5c4.14-3.51 9.66-2.19 11.86 2.8a15.65 15.65 0 0 1 1.35 6.73c-.47 10-1.3 20.08-1.86 30.13-.77 13.83-1 27.7 2.76 41.17 6.45 22.94 19.53 31.64 43.42 29.38 1.69-.16 3.42 0 6.2 0-7 4.51-13.76 5.11-20.57 5.24-16.51.32-29.23-8.53-36-24.39-5.79-13.51-7.76-27.75-8.63-42.23-.21-3.47-.32-6.94-.48-10.41Z" style="fill:#c2b59b" transform="translate(-22.99 -32)"/><rect width="16.28" height="17.06" x="93.83" rx="8.14" style="fill:#9b8579"/></svg>